<svg width="24" height="24" viewBox="0 0 24 24" fill="none" xmlns="http://www.w3.org/2000/svg">
<path d="M14.3384 8.80371L7.21338 21.1446" stroke="#0A2533" stroke-width="1.5" stroke-linecap="round" stroke-linejoin="round"/>
<path d="M12.5663 18.8944C11.2244 19.2539 9.081 18.1811 9.081 18.1811C9.081 18.1811 10.4286 15.7833 11.9303 15.496C13.2564 15.2424 15.2281 16.534 15.2281 16.534C15.2281 16.534 13.9083 18.5348 12.5663 18.8944Z" stroke="#0A2533" stroke-width="1.5" stroke-linecap="round" stroke-linejoin="round"/>
<path d="M15.5678 13.6956C14.2258 14.0552 12.0825 12.9824 12.0825 12.9824C12.0825 12.9824 13.43 10.5846 14.9317 10.2973C16.2579 10.0436 18.2296 11.3353 18.2296 11.3353C18.2296 11.3353 16.9098 13.336 15.5678 13.6956Z" stroke="#0A2533" stroke-width="1.5" stroke-linecap="round" stroke-linejoin="round"/>
<path d="M17.3068 6.84352C16.6122 8.0467 14.338 8.8037 14.338 8.8037C14.338 8.8037 13.5953 6.15531 14.4541 4.8903C15.2124 3.77321 17.52 3.29234 17.52 3.29234C17.52 3.29234 18.0015 5.64033 17.3068 6.84352Z" stroke="#0A2533" stroke-width="1.5" stroke-linecap="round" stroke-linejoin="round"/>
<path d="M6.39581 15.3318C6.75539 16.6737 8.75614 17.9936 8.75614 17.9936C8.75614 17.9936 10.1589 15.6276 9.65686 14.1835C9.21349 12.9082 7.10903 11.8464 7.10903 11.8464C7.10903 11.8464 6.03622 13.9898 6.39581 15.3318Z" stroke="#0A2533" stroke-width="1.5" stroke-linecap="round" stroke-linejoin="round"/>
<path d="M9.39727 10.133C9.75685 11.475 11.7576 12.7948 11.7576 12.7948C11.7576 12.7948 13.1604 10.4289 12.6583 8.98472C12.215 7.70943 10.1105 6.64771 10.1105 6.64771C10.1105 6.64771 9.03769 8.79107 9.39727 10.133Z" stroke="#0A2533" stroke-width="1.5" stroke-linecap="round" stroke-linejoin="round"/>
</svg>
