<svg width="27" height="27" viewBox="0 0 27 27" fill="none" xmlns="http://www.w3.org/2000/svg">
<path d="M21.6 21.6L27 27V2.7C27 1.9575 26.7356 1.32187 26.2069 0.793125C25.6781 0.264375 25.0425 0 24.3 0H2.7C1.9575 0 1.32187 0.264375 0.793125 0.793125C0.264375 1.32187 0 1.9575 0 2.7V18.9C0 19.6425 0.264375 20.2781 0.793125 20.8069C1.32187 21.3356 1.9575 21.6 2.7 21.6H21.6Z" fill="white"/>
<path d="M27 27L21.6 21.6H2.7C1.9575 21.6 1.32187 21.3356 0.793125 20.8069C0.264375 20.2781 0 19.6425 0 18.9V2.7C0 1.9575 0.264375 1.32187 0.793125 0.793125C1.32187 0.264375 1.9575 0 2.7 0H24.3C25.0425 0 25.6781 0.264375 26.2069 0.793125C26.7356 1.32187 27 1.9575 27 2.7V27ZM2.7 18.9H22.7475L24.3 20.4187V2.7H2.7V18.9Z" fill="#1D1B20"/>
</svg> 