<svg width="31" height="31" viewBox="0 0 31 31" fill="none" xmlns="http://www.w3.org/2000/svg">
<path d="M13.9729 4.07015H3.89549C3.13186 4.07015 2.3995 4.3735 1.85953 4.91347C1.31957 5.45343 1.01621 6.18579 1.01621 6.94942V27.1043C1.01621 27.868 1.31957 28.6003 1.85953 29.1403C2.3995 29.6803 3.13186 29.9836 3.89549 29.9836H24.0504C24.814 29.9836 25.5464 29.6803 26.0864 29.1403C26.6263 28.6003 26.9297 27.868 26.9297 27.1043V17.0269" fill="#FFFFFF"/>
<path d="M24.7702 1.91069C25.343 1.33797 26.1197 1.01621 26.9297 1.01621C27.7396 1.01621 28.5164 1.33797 29.0891 1.91069C29.6619 2.48341 29.9836 3.26019 29.9836 4.07015C29.9836 4.8801 29.6619 5.65688 29.0891 6.2296L15.4126 19.9062L9.65404 21.3458L11.0937 15.5872L24.7702 1.91069Z" fill="#FFFFFF"/>
<path d="M13.9729 4.07015H3.89549C3.13186 4.07015 2.3995 4.3735 1.85953 4.91347C1.31957 5.45343 1.01621 6.18579 1.01621 6.94942V27.1043C1.01621 27.868 1.31957 28.6003 1.85953 29.1403C2.3995 29.6803 3.13186 29.9836 3.89549 29.9836H24.0504C24.814 29.9836 25.5464 29.6803 26.0864 29.1403C26.6263 28.6003 26.9297 27.868 26.9297 27.1043V17.0269M24.7702 1.91069C25.343 1.33797 26.1197 1.01621 26.9297 1.01621C27.7396 1.01621 28.5164 1.33797 29.0891 1.91069C29.6619 2.48341 29.9836 3.26019 29.9836 4.07015C29.9836 4.8801 29.6619 5.65688 29.0891 6.2296L15.4126 19.9062L9.65404 21.3458L11.0937 15.5872L24.7702 1.91069Z" stroke="#1E1E1E" stroke-width="2" stroke-linecap="round" stroke-linejoin="round"/>
</svg>
