<svg width="28" height="31" viewBox="0 0 28 31" fill="none" xmlns="http://www.w3.org/2000/svg">
<path d="M1.01818 11.1152L14 1.01818L26.9818 11.1152V26.9818C26.9818 27.7469 26.6779 28.4807 26.1369 29.0217C25.5959 29.5627 24.8621 29.8667 24.097 29.8667H3.90303C3.13792 29.8667 2.40415 29.5627 1.86313 29.0217C1.32212 28.4807 1.01818 27.7469 1.01818 26.9818V11.1152Z" fill="white"/>
<path d="M9.67273 29.8667V15.4424H18.3273V29.8667" fill="white"/>
<path d="M9.67273 29.8667V15.4424H18.3273V29.8667M1.01818 11.1152L14 1.01818L26.9818 11.1152V26.9818C26.9818 27.7469 26.6779 28.4807 26.1369 29.0217C25.5959 29.5627 24.8621 29.8667 24.097 29.8667H3.90303C3.13792 29.8667 2.40415 29.5627 1.86313 29.0217C1.32212 28.4807 1.01818 27.7469 1.01818 26.9818V11.1152Z" stroke="#1E1E1E" stroke-width="2" stroke-linecap="round" stroke-linejoin="round"/>
</svg>
