<svg width="21" height="21" viewBox="0 0 21 21" fill="none" xmlns="http://www.w3.org/2000/svg">
<path d="M5.76635 9.5532L9.5532 1.03278C10.3065 1.03278 11.0289 1.33201 11.5615 1.86464C12.0941 2.39727 12.3933 3.11967 12.3933 3.87292V7.65977H17.7517C18.0262 7.65667 18.2981 7.71327 18.5485 7.82566C18.7989 7.93804 19.0219 8.10353 19.202 8.31065C19.3821 8.51778 19.515 8.76158 19.5915 9.02517C19.6681 9.28877 19.6864 9.56585 19.6452 9.83722L18.3387 18.3576C18.2702 18.8091 18.0409 19.2207 17.693 19.5164C17.345 19.8122 16.9019 19.9722 16.4453 19.9671H5.76635M5.76635 9.5532V19.9671M5.76635 9.5532H2.92621C2.42404 9.5532 1.94244 9.75269 1.58735 10.1078C1.23226 10.4629 1.03278 10.9445 1.03278 11.4466V18.0736C1.03278 18.5758 1.23226 19.0574 1.58735 19.4125C1.94244 19.7676 2.42404 19.9671 2.92621 19.9671H5.76635" stroke="#1E1E1E" stroke-width="2" stroke-linecap="round" stroke-linejoin="round"/>
</svg>
